# xmcd
#
# Track frame offsets:
#	150
#	15400
#	28300
#	42150
#	58375
#	72000
#	83875
#	98400
#	112550
#	126250
#	140825
#	154075
#	168425
#	181100
#	195575
#	209550
#	224675
#	238975
#	253000
#	267725
#	282675
#	303275
#	317150
#	332500
#
# Disc length: 4627
#
# Revision: 1
# Processed by: cddbd v1.5.1PL0 Copyright (c) Steve Scherf et al.
# Submitted via: CDex 1.51
# Normalized: r0:TDELIM( - )
#
DISCID=6a121118
DTITLE=Jack Teagarden - Jazz Gallery
DYEAR=1994
DGENRE=Jazz
TTITLE0=Roger wolfe Kahn and his Orchestra - She's a Great, Great Girl
TTITLE1=Ben Pollack and his Park Orchestra - Buy Buy for Baby
TTITLE2=Eddi Condon and his Footwarmers - Makin' Friends
TTITLE3=Eddie's Hot Shoes - I'm Gonna Stomp Mr. Henry Lee
TTITLE4=Ben Pollack Irving Mills Unit Kentucky Grashoppers - Makin' Friends
TTITLE5=Red Nichols and his five Pennies - Indiana
TTITLE6=Red Nichols and his five Pennies - Dinah
TTITLE7=Mound City Blue Blowers - Tailspin Blues
TTITLE8=Mound City Blue Blowers - Never had a reason to believe in you
TTITLE9=Red Nichols and his five Pennies - After you've gone
TTITLE10=Red Nichols and his five Pennies - I want to be happy
TTITLE11=Red Nichols and his five Pennies - Peg O'My Heart
TTITLE12=Jack Teagarden and his Orchestra - Loveless Love
TTITLE13=The Charleston Chasers - Basin Street Blues
TTITLE14=Ben Pollack and his Orchestra - Sweet and Hot
TTITLE15=Eddie Lang - Joe Venuti and their Allstar Orchestra - Beale Street Blues
TTITLE16=Bennie Goodman and his Orchestra - I gotta right to Sing the Blues
TTITLE17=Benny Goodman and his Orchestra - Keep on Doin' what you're Doin
TTITLE18=Adrian Rollini and his Orchestra - Davenport Blues
TTITLE19=Frankie Trumbauer and his Orchestra - Ain't Misbehavin'
TTITLE20=Eddie Condon and his Windy City Seven Jam Session at Commodore - Serenade to a Shylock
TTITLE21=Paul Whiteman and his Swing Wing - Aunt Hagar's Blues
TTITLE22=All Star Band - The Blues
TTITLE23=Jack Teagarden - Beale Street Blues
EXTD=YEAR: 1994
EXTT0=
EXTT1=
EXTT2=
EXTT3=
EXTT4=
EXTT5=
EXTT6=
EXTT7=
EXTT8=
EXTT9=
EXTT10=
EXTT11=
EXTT12=
EXTT13=
EXTT14=
EXTT15=
EXTT16=
EXTT17=
EXTT18=
EXTT19=
EXTT20=
EXTT21=
EXTT22=
EXTT23=
PLAYORDER=
